<?xml version="1.0" standalone="no"?>
<!DOCTYPE svg PUBLIC "-//W3C//DTD SVG 20010904//EN"
 "http://www.w3.org/TR/2001/REC-SVG-20010904/DTD/svg10.dtd">
<svg version="1.0" xmlns="http://www.w3.org/2000/svg"
 width="697.000000pt" height="697.000000pt" viewBox="0 0 697.000000 697.000000"
 preserveAspectRatio="xMidYMid meet">
<metadata>
Created by potrace 1.14, written by Peter Selinger 2001-2017
</metadata>
<g transform="translate(0.000000,697.000000) scale(0.100000,-0.100000)"
fill="#000000" stroke="none">
<path d="M3269 6965 c-2 -1 -42 -6 -89 -9 -47 -3 -94 -8 -105 -10 -11 -2 -47
-7 -80 -12 -33 -4 -62 -8 -65 -9 -7 -1 -103 -18 -115 -20 -29 -3 -102 -20
-205 -47 -353 -91 -698 -241 -1000 -436 -115 -75 -258 -177 -304 -217 -6 -6
-36 -30 -66 -55 -97 -80 -236 -215 -370 -360 -107 -117 -267 -336 -378 -520
-64 -105 -222 -418 -222 -439 0 -6 -5 -19 -10 -29 -54 -93 -179 -519 -205
-702 -4 -24 -8 -47 -10 -50 -2 -3 -6 -37 -10 -75 -4 -39 -9 -72 -10 -75 -2 -3
-7 -48 -12 -100 -15 -176 -8 -608 12 -731 2 -13 6 -46 10 -74 9 -78 54 -300
81 -405 27 -102 105 -337 136 -410 10 -25 27 -63 36 -85 111 -264 329 -616
537 -862 109 -131 326 -342 467 -455 549 -441 1176 -696 1883 -765 99 -10 502
-10 610 0 371 33 753 129 1084 273 119 52 339 163 371 188 8 6 25 17 38 24 12
6 32 18 45 25 12 6 24 14 27 17 3 3 50 35 105 72 197 132 407 314 583 503 118
127 127 138 226 270 218 288 370 567 498 915 43 117 122 394 134 470 2 14 9
45 14 70 12 53 17 87 26 155 3 28 7 61 9 75 20 147 27 526 13 710 -9 107 -33
275 -59 410 -24 121 -108 416 -138 485 -5 11 -23 58 -41 104 -39 104 -122 279
-182 386 -187 335 -412 622 -689 880 -278 258 -660 507 -984 640 -49 21 -103
43 -120 50 -153 66 -467 151 -695 189 -19 3 -45 8 -58 11 -12 2 -55 7 -94 10
-39 4 -85 9 -102 12 -35 5 -522 14 -527 8z"/>
</g>
</svg>
